<svg xmlns="http://www.w3.org/2000/svg" xmlns:xlink="http://www.w3.org/1999/xlink" width="6912" zoomAndPan="magnify" viewBox="0 0 5184 2592.000001" height="3456" preserveAspectRatio="xMidYMid meet" version="1.0"><defs><g/></defs><path fill="#ffffff" d="M 1 0 L 5183 0 L 5183 2591 L 1 2591 Z M 1 0 " fill-opacity="1" fill-rule="nonzero"/><path fill="#ffffff" d="M 1 0 L 5183 0 L 5183 2591 L 1 2591 Z M 1 0 " fill-opacity="1" fill-rule="nonzero"/><g fill="#00bf63" fill-opacity="1"><g transform="translate(1384.718479, 1463.675707)"><g><path d="M 149.578125 -90.15625 L 18.28125 -11.015625 L -119.4375 -239.515625 L -0.921875 -310.953125 C 21.015625 -324.171875 39.222656 -329.328125 53.703125 -326.421875 C 68.179688 -323.515625 80.316406 -313.941406 90.109375 -297.703125 C 100.023438 -281.253906 104.703125 -266.835938 104.140625 -254.453125 C 103.578125 -242.066406 99.070312 -231.390625 90.625 -222.421875 L 91.90625 -220.296875 C 124.414062 -232.960938 151.265625 -221.726562 172.453125 -186.59375 C 183.460938 -168.3125 187.476562 -150.726562 184.5 -133.84375 C 181.53125 -116.96875 169.890625 -102.40625 149.578125 -90.15625 Z M 65.125 -163.4375 L 36.5 -146.1875 L 59.09375 -108.71875 L 87.109375 -125.609375 C 97.460938 -131.847656 98.84375 -141.257812 91.25 -153.84375 C 83.78125 -166.238281 75.070312 -169.4375 65.125 -163.4375 Z M 6.9375 -247.578125 L -16.203125 -233.625 L 4.359375 -199.5 L 26.890625 -213.078125 C 36.234375 -218.710938 37.476562 -227.21875 30.625 -238.59375 C 23.769531 -249.96875 15.875 -252.960938 6.9375 -247.578125 Z M 6.9375 -247.578125 "/></g></g></g><g fill="#00bf63" fill-opacity="1"><g transform="translate(1582.587404, 1346.560379)"><g><path d="M 96.125 -46.359375 L 19.21875 -9.265625 L -68.875 -191.890625 L 3.390625 -238.59375 Z M -95.125 -235.703125 C -97.914062 -241.472656 -99.617188 -246.640625 -100.234375 -251.203125 C -100.859375 -255.773438 -100.160156 -260.0625 -98.140625 -264.0625 C -96.128906 -268.0625 -92.601562 -271.9375 -87.5625 -275.6875 C -82.53125 -279.4375 -75.738281 -283.367188 -67.1875 -287.484375 C -58.65625 -291.609375 -51.40625 -294.445312 -45.4375 -296 C -39.476562 -297.5625 -34.300781 -297.882812 -29.90625 -296.96875 C -25.519531 -296.0625 -21.734375 -293.941406 -18.546875 -290.609375 C -15.359375 -287.285156 -12.367188 -282.738281 -9.578125 -276.96875 C -6.796875 -271.195312 -5.117188 -266.078125 -4.546875 -261.609375 C -3.984375 -257.148438 -4.710938 -252.914062 -6.734375 -248.90625 C -8.753906 -244.90625 -12.253906 -241.113281 -17.234375 -237.53125 C -22.222656 -233.945312 -28.984375 -230.09375 -37.515625 -225.96875 C -43.722656 -222.976562 -49.539062 -220.4375 -54.96875 -218.34375 C -60.40625 -216.25 -65.535156 -215.289062 -70.359375 -215.46875 C -75.179688 -215.644531 -79.640625 -217.242188 -83.734375 -220.265625 C -87.828125 -223.296875 -91.625 -228.441406 -95.125 -235.703125 Z M -95.125 -235.703125 "/></g></g></g><g fill="#00bf63" fill-opacity="1"><g transform="translate(1676.489649, 1297.33065)"><g><path d="M 72.359375 -104.703125 L 77.625 -90.71875 C 81.78125 -91.789062 85.898438 -92.960938 89.984375 -94.234375 C 94.078125 -95.515625 98.113281 -96.90625 102.09375 -98.40625 C 126.957031 -107.75 150.539062 -121.175781 172.84375 -138.6875 L 204.203125 -83.578125 C 177.234375 -64.316406 149.207031 -49.222656 120.125 -38.296875 C 82.820312 -24.273438 52.578125 -22.847656 29.390625 -34.015625 C 6.203125 -45.191406 -12.109375 -68.648438 -25.546875 -104.390625 C -38.972656 -140.128906 -40.582031 -169.863281 -30.375 -193.59375 C -20.164062 -217.320312 3.472656 -236.148438 40.546875 -250.078125 C 59.203125 -257.085938 75.179688 -261.757812 88.484375 -264.09375 C 101.785156 -266.4375 113.285156 -266.328125 122.984375 -263.765625 C 132.679688 -261.210938 140.867188 -255.929688 147.546875 -247.921875 C 154.234375 -239.910156 160.207031 -228.914062 165.46875 -214.9375 C 169.800781 -203.394531 171.59375 -192.734375 170.84375 -182.953125 C 170.09375 -173.171875 166.164062 -163.90625 159.0625 -155.15625 C 151.957031 -146.414062 141.335938 -137.929688 127.203125 -129.703125 C 113.066406 -121.472656 94.785156 -113.140625 72.359375 -104.703125 Z M 48.84375 -167.3125 L 54.96875 -151 L 71.296875 -157.140625 C 81.054688 -160.804688 87.722656 -164.453125 91.296875 -168.078125 C 94.878906 -171.710938 95.296875 -177.191406 92.546875 -184.515625 L 86.40625 -200.8125 L 70.09375 -194.671875 C 60.320312 -191.003906 53.644531 -187.359375 50.0625 -183.734375 C 46.488281 -180.117188 46.082031 -174.644531 48.84375 -167.3125 Z M 48.84375 -167.3125 "/></g></g></g><g fill="#00bf63" fill-opacity="1"><g transform="translate(1877.840238, 1219.575297)"><g><path d="M -29.25 -212.5 L 12.25 -222.5 L 38 -206.75 C 59.269531 -230.882812 84.773438 -246.535156 114.515625 -253.703125 C 134.109375 -258.421875 150.394531 -257.894531 163.375 -252.125 C 176.351562 -246.351562 184.644531 -235.976562 188.25 -221 L 228.25 -55 L 145.25 -35 L 110.25 -180.25 L 97.4375 -177.15625 C 87.988281 -174.882812 81.082031 -172.1875 76.71875 -169.0625 C 72.351562 -165.9375 70.976562 -161.023438 72.59375 -154.328125 L 103.75 -25 L 20.75 -5 Z M -29.25 -212.5 "/></g></g></g><g fill="#00bf63" fill-opacity="1"><g transform="translate(2100.375965, 1165.411164)"><g><path d="M 167.421875 -19.921875 L 195.1875 -238.171875 L 110.421875 -228.078125 L 103.5 -87.546875 L 99.25 -87.03125 L 59.5625 -222.03125 L -25.21875 -211.9375 L 52.984375 -6.3125 Z M 167.421875 -19.921875 "/></g></g></g><g fill="#00bf63" fill-opacity="1"><g transform="translate(2296.183884, 1140.133611)"><g><path d="M 104.296875 -72.96875 L 104.359375 -58.03125 C 108.628906 -57.570312 112.898438 -57.226562 117.171875 -57 C 121.441406 -56.78125 125.707031 -56.679688 129.96875 -56.703125 C 156.53125 -56.804688 183.3125 -61.175781 210.3125 -69.8125 L 220.515625 -7.25 C 188.546875 1.414062 157.023438 5.804688 125.953125 5.921875 C 86.109375 6.078125 57.257812 -3.113281 39.40625 -21.65625 C 21.550781 -40.207031 12.550781 -68.578125 12.40625 -106.765625 C 12.257812 -144.941406 21.097656 -173.367188 38.921875 -192.046875 C 56.753906 -210.734375 85.472656 -220.15625 125.078125 -220.3125 C 145.003906 -220.382812 161.609375 -219.203125 174.890625 -216.765625 C 188.179688 -214.328125 198.925781 -210.21875 207.125 -204.4375 C 215.332031 -198.664062 221.175781 -190.863281 224.65625 -181.03125 C 228.132812 -171.195312 229.898438 -158.8125 229.953125 -143.875 C 230.003906 -131.539062 227.972656 -120.921875 223.859375 -112.015625 C 219.742188 -103.109375 212.832031 -95.789062 203.125 -90.0625 C 193.425781 -84.332031 180.519531 -80.070312 164.40625 -77.28125 C 148.289062 -74.488281 128.253906 -73.050781 104.296875 -72.96875 Z M 104.046875 -139.84375 L 104.109375 -122.421875 L 121.546875 -122.484375 C 131.972656 -122.523438 139.492188 -123.617188 144.109375 -125.765625 C 148.734375 -127.921875 151.03125 -132.910156 151 -140.734375 L 150.9375 -158.15625 L 133.515625 -158.09375 C 123.078125 -158.050781 115.546875 -156.957031 110.921875 -154.8125 C 106.304688 -152.664062 104.015625 -147.675781 104.046875 -139.84375 Z M 104.046875 -139.84375 "/></g></g></g><g fill="#00bf63" fill-opacity="1"><g transform="translate(2512.008519, 1137.351893)"><g><path d="M 46.5625 -209.390625 L 88.953125 -204.3125 L 107.609375 -180.578125 C 135.941406 -195.804688 165.296875 -201.601562 195.671875 -197.96875 C 215.691406 -195.5625 230.773438 -189.390625 240.921875 -179.453125 C 251.078125 -169.523438 255.238281 -156.910156 253.40625 -141.609375 L 233.109375 27.921875 L 148.34375 17.765625 L 166.109375 -130.578125 L 153.03125 -132.140625 C 143.382812 -133.296875 135.96875 -133.171875 130.78125 -131.765625 C 125.59375 -130.359375 122.585938 -126.234375 121.765625 -119.390625 L 105.953125 12.6875 L 21.1875 2.53125 Z M 46.5625 -209.390625 "/></g></g></g><g fill="#00bf63" fill-opacity="1"><g transform="translate(2741.449772, 1166.727929)"><g><path d="M 104.3125 22.515625 L 20.859375 4.5 L 63.625 -193.703125 L 149.328125 -186.125 Z M 69.84375 -244.390625 C 71.195312 -250.648438 73.03125 -255.773438 75.34375 -259.765625 C 77.65625 -263.753906 80.835938 -266.707031 84.890625 -268.625 C 88.941406 -270.539062 94.109375 -271.425781 100.390625 -271.28125 C 106.671875 -271.132812 114.445312 -270.0625 123.71875 -268.0625 C 132.988281 -266.0625 140.453125 -263.84375 146.109375 -261.40625 C 151.773438 -258.976562 156.054688 -256.054688 158.953125 -252.640625 C 161.847656 -249.222656 163.53125 -245.21875 164 -240.625 C 164.476562 -236.039062 164.039062 -230.617188 162.6875 -224.359375 C 161.332031 -218.097656 159.503906 -213.03125 157.203125 -209.15625 C 154.910156 -205.289062 151.738281 -202.398438 147.6875 -200.484375 C 143.644531 -198.566406 138.554688 -197.722656 132.421875 -197.953125 C 126.285156 -198.179688 118.582031 -199.296875 109.3125 -201.296875 C 102.582031 -202.742188 96.425781 -204.3125 90.84375 -206 C 85.269531 -207.6875 80.632812 -210.082031 76.9375 -213.1875 C 73.238281 -216.300781 70.707031 -220.304688 69.34375 -225.203125 C 67.976562 -230.109375 68.144531 -236.503906 69.84375 -244.390625 Z M 69.84375 -244.390625 "/></g></g></g><g fill="#00bf63" fill-opacity="1"><g transform="translate(2845.574625, 1185.118913)"><g><path d="M 307.328125 -200.609375 L 221.84375 70.0625 L 181.140625 57.203125 L 168.84375 34.671875 C 152.457031 46.410156 128.773438 47.382812 97.796875 37.59375 C 81.515625 32.457031 68.757812 25.195312 59.53125 15.8125 C 50.3125 6.4375 43.804688 -4.253906 40.015625 -16.265625 C 36.222656 -28.285156 34.875 -41.332031 35.96875 -55.40625 C 37.0625 -69.488281 39.859375 -83.65625 44.359375 -97.90625 C 48.640625 -111.46875 54.082031 -123.984375 60.6875 -135.453125 C 67.289062 -146.921875 75.21875 -156.289062 84.46875 -163.5625 C 93.726562 -170.84375 104.429688 -175.609375 116.578125 -177.859375 C 128.734375 -180.117188 142.5 -178.820312 157.875 -173.96875 L 204.6875 -159.1875 L 223.96875 -220.21875 Z M 141.703125 -101.484375 L 116.53125 -21.765625 L 129.09375 -17.796875 C 138.363281 -14.867188 145.472656 -13.554688 150.421875 -13.859375 C 155.367188 -14.160156 159.175781 -17.375 161.84375 -23.5 L 187.875 -105.921875 L 175.328125 -109.875 C 165.378906 -113.019531 157.878906 -114.273438 152.828125 -113.640625 C 147.773438 -113.003906 144.066406 -108.953125 141.703125 -101.484375 Z M 141.703125 -101.484375 "/></g></g></g><g fill="#00bf63" fill-opacity="1"><g transform="translate(3063.790181, 1252.409103)"><g><path d="M 56.296875 -91.5625 C 72.265625 -126.238281 92.21875 -148.304688 116.15625 -157.765625 C 140.09375 -167.234375 170.15625 -163.632812 206.34375 -146.96875 C 242.53125 -130.289062 264.804688 -109.773438 273.171875 -85.421875 C 281.535156 -61.078125 277.734375 -31.566406 261.765625 3.109375 C 245.785156 37.785156 225.820312 59.851562 201.875 69.3125 C 177.925781 78.78125 147.859375 75.175781 111.671875 58.5 C 76.359375 42.226562 54.226562 21.984375 45.28125 -2.234375 C 36.34375 -26.460938 40.015625 -56.238281 56.296875 -91.5625 Z M 153.328125 -82.875 L 118.34375 -6.953125 L 130.296875 -1.453125 C 139.773438 2.910156 147.0625 5.09375 152.15625 5.09375 C 157.25 5.09375 161.429688 1.539062 164.703125 -5.5625 L 199.6875 -81.5 L 187.734375 -87.015625 C 178.253906 -91.378906 170.96875 -93.554688 165.875 -93.546875 C 160.789062 -93.546875 156.609375 -89.988281 153.328125 -82.875 Z M 153.328125 -82.875 "/></g></g></g><g fill="#00bf63" fill-opacity="1"><g transform="translate(3270.14693, 1346.74681)"><g><path d="M 142.84375 -152.765625 C 163.613281 -151.710938 187.546875 -142.878906 214.640625 -126.265625 C 241.929688 -109.546875 264.609375 -90.507812 282.671875 -69.15625 L 243.890625 -24.90625 C 236.128906 -33.5625 227.96875 -41.347656 219.40625 -48.265625 C 210.851562 -55.179688 201.726562 -61.609375 192.03125 -67.546875 C 189.195312 -69.285156 185.640625 -71.328125 181.359375 -73.671875 C 177.085938 -76.015625 172.140625 -78.488281 166.515625 -81.09375 L 159.453125 -69.578125 C 170.578125 -62.765625 181.660156 -55.207031 192.703125 -46.90625 C 203.742188 -38.601562 212.796875 -29.4375 219.859375 -19.40625 C 226.921875 -9.375 231.023438 1.625 232.171875 13.59375 C 233.328125 25.5625 229.570312 38.617188 220.90625 52.765625 C 214.820312 62.679688 208.28125 70.847656 201.28125 77.265625 C 194.289062 83.691406 187.046875 87.796875 179.546875 89.578125 C 171.847656 91.265625 164.550781 91.941406 157.65625 91.609375 C 150.769531 91.285156 142.8125 89.191406 133.78125 85.328125 C 126.6875 82.367188 119.296875 78.878906 111.609375 74.859375 C 103.921875 70.847656 95.832031 66.242188 87.34375 61.046875 C 57.613281 42.828125 32.582031 22.617188 12.25 0.421875 L 52.953125 -45.5625 C 61.410156 -36.21875 70.597656 -27.390625 80.515625 -19.078125 C 90.441406 -10.765625 101.367188 -2.953125 113.296875 4.359375 C 118.765625 7.703125 124.035156 10.789062 129.109375 13.625 C 134.191406 16.457031 139.242188 19 144.265625 21.25 L 151.328125 9.734375 C 131.910156 -2.160156 116.457031 -13.367188 104.96875 -23.890625 C 93.476562 -34.421875 85.347656 -44.757812 80.578125 -54.90625 C 75.816406 -65.0625 74.375 -75.40625 76.25 -85.9375 C 78.125 -96.476562 82.648438 -107.609375 89.828125 -119.328125 C 104.203125 -142.785156 121.875 -153.929688 142.84375 -152.765625 Z M 142.84375 -152.765625 "/></g></g></g></svg>