<svg width="100%" height="100%" id="svg2" viewBox="0 0 1440 320" xmlns="http://www.w3.org/2000/svg">
    
    <defs>
      <linearGradient id="gradient2" x1="0%" y1="50%" x2="100%" y2="50%">
        <stop offset="5%" stop-color="#008000"></stop>
        <stop offset="95%" stop-color="#ffff00"></stop>
      </linearGradient>
    </defs>
    <path d="M0,224L60,213.3C120,203,240,181,360,197.3C480,213,600,267,720,282.7C840,299,960,277,1080,245.3C1200,213,1320,171,1380,149.3L1440,128L1440,320L1380,320C1320,320,1200,320,1080,320C960,320,840,320,720,320C600,320,480,320,360,320C240,320,120,320,60,320L0,320Z" fill="url(#gradient2)" fill-opacity="1"></path>
 
</svg>
  