<svg width="100%" height="100%" id="svg3" viewBox="0 0 1440 320" xmlns="http://www.w3.org/2000/svg">
    <defs>
      <linearGradient id="gradient3" x1="0%" y1="50%" x2="100%" y2="50%">
        <stop offset="5%" stop-color="#008000"></stop>
        <stop offset="95%" stop-color="#ffff00"></stop>
      </linearGradient>
    </defs>
    <path d="M0,288L48,272C96,256,192,224,288,218.7C384,213,480,235,576,256C672,277,768,299,864,277.3C960,256,1056,192,1152,170.7C1248,149,1344,171,1392,181.3L1440,192L1440,320L1392,320C1344,320,1248,320,1152,320C1056,320,960,320,864,320C768,320,672,320,576,320C480,320,384,320,288,320C192,320,96,320,48,320L0,320Z" fill="url(#gradient3)" fill-opacity="1"></path>
  </svg>
  