<svg width="600px" height="100%" id="svg" viewBox="0 0 1440 690" xmlns="http://www.w3.org/2000/svg"
  class="transition duration-300 ease-in-out delay-150">
  <defs>
    <linearGradient id="gradient" x1="0%" y1="50%" x2="100%" y2="50%">
      <stop offset="5%" stop-color="#008000"></stop>
      <stop offset="95%" stop-color="#ffff00"></stop>
    </linearGradient>
  </defs>
  <path
    d="M 0,700 L 0,131 C 97.60765550239233,163.00956937799043 195.21531100478467,195.0191387559809 305,177 C 414.78468899521533,158.9808612440191 536.7464114832536,90.93301435406698 618,84 C 699.2535885167464,77.06698564593302 739.7990430622009,131.24880382775117 829,136 C 918.2009569377991,140.75119617224883 1056.0574162679427,96.07177033492823 1166,87 C 1275.9425837320573,77.92822966507177 1357.9712918660287,104.46411483253588 1440,131 L 1440,700 L 0,700 Z"
    stroke="none" stroke-width="0" fill="url(#gradient)" fill-opacity="0.4"
    class="transition-all duration-300 ease-in-out delay-150 path-0"></path>
  <defs>
    <linearGradient id="gradient" x1="0%" y1="50%" x2="100%" y2="50%">
      <stop offset="5%" stop-color="#008000"></stop>
      <stop offset="95%" stop-color="#ffff00"></stop>
    </linearGradient>
  </defs>
  <path
    d="M 0,700 L 0,306 C 77.3397129186603,302.555023923445 154.6794258373206,299.1100478468899 252,296 C 349.3205741626794,292.8899521531101 466.62200956937795,290.11483253588517 572,278 C 677.377990430622,265.88516746411483 770.8325358851675,244.4306220095694 859,261 C 947.1674641148325,277.5693779904306 1030.047846889952,332.1626794258373 1126,346 C 1221.952153110048,359.8373205741627 1330.976076555024,332.91866028708137 1440,306 L 1440,700 L 0,700 Z"
    stroke="none" stroke-width="0" fill="url(#gradient)" fill-opacity="0.53"
    class="transition-all duration-300 ease-in-out delay-150 path-1"></path>
  <defs>
    <linearGradient id="gradient" x1="0%" y1="50%" x2="100%" y2="50%">
      <stop offset="5%" stop-color="#008000"></stop>
      <stop offset="95%" stop-color="#ffff00"></stop>
    </linearGradient>
  </defs>
  <path
    d="M 0,700 L 0,481 C 113.02392344497608,462.1004784688995 226.04784688995215,443.20095693779905 315,456 C 403.95215311004785,468.79904306220095 468.83253588516743,513.2966507177033 564,518 C 659.1674641148326,522.7033492822967 784.622009569378,487.6124401913876 898,469 C 1011.377990430622,450.3875598086124 1112.6794258373207,448.25358851674645 1201,453 C 1289.3205741626793,457.74641148325355 1364.6602870813397,469.37320574162675 1440,481 L 1440,700 L 0,700 Z"
    stroke="none" stroke-width="0" fill="url(#gradient)" fill-opacity="1"
    class="transition-all duration-300 ease-in-out delay-150 path-2"></path>
</svg>