<svg width="600px" height="100%" id="svg" viewBox="0 0 1440 590" xmlns="http://www.w3.org/2000/svg" class="transition duration-300 ease-in-out delay-150">
    <defs>
      <linearGradient id="gradient" x1="0%" y1="50%" x2="100%" y2="50%">
        <stop offset="5%" stop-color="#008000"></stop>
        <stop offset="95%" stop-color="#ffff00"></stop>
      </linearGradient>
    </defs>
    <path d="M 0,600 L 0,112 C 112.75598086124404,93.39712918660287 225.51196172248808,74.79425837320574 328,66 C 430.4880382775119,57.20574162679426 522.7081339712918,58.220095693779896 615,77 C 707.2918660287082,95.7799043062201 799.6555023923447,132.32535885167462 880,137 C 960.3444976076553,141.67464114832538 1028.66985645933,114.47846889952153 1120,105 C 1211.33014354067,95.52153110047847 1325.665071770335,103.76076555023923 1440,112 L 1440,600 L 0,600 Z" stroke="none" stroke-width="0" fill="url(#gradient)" fill-opacity="0.4" class="transition-all duration-300 ease-in-out delay-150 path-0"></path>
    <defs>
      <linearGradient id="gradient" x1="0%" y1="50%" x2="100%" y2="50%">
        <stop offset="5%" stop-color="#008000"></stop>
        <stop offset="95%" stop-color="#ffff00"></stop>
      </linearGradient>
    </defs>
    <path d="M 0,600 L 0,262 C 123.99043062200957,277.07177033492826 247.98086124401914,292.14354066985646 332,286 C 416.01913875598086,279.85645933014354 460.06698564593296,252.49760765550238 546,236 C 631.933014354067,219.50239234449762 759.7511961722489,213.86602870813397 857,230 C 954.2488038277511,246.13397129186603 1020.9282296650717,284.0382775119617 1113,293 C 1205.0717703349283,301.9617224880383 1322.5358851674641,281.98086124401914 1440,262 L 1440,600 L 0,600 Z" stroke="none" stroke-width="0" fill="url(#gradient)" fill-opacity="0.53" class="transition-all duration-300 ease-in-out delay-150 path-1"></path>
    <defs>
      <linearGradient id="gradient" x1="0%" y1="50%" x2="100%" y2="50%">
        <stop offset="5%" stop-color="#008000"></stop>
        <stop offset="95%" stop-color="#ffff00"></stop>
      </linearGradient>
    </defs>
    <path d="M 0,600 L 0,412 C 80.51674641148324,428.5071770334928 161.03349282296648,445.0143540669856 271,436 C 380.9665071770335,426.9856459330144 520.3827751196171,392.44976076555025 628,379 C 735.6172248803829,365.55023923444975 811.4354066985647,373.18660287081343 886,370 C 960.5645933014353,366.81339712918657 1033.8755980861245,352.8038277511962 1126,358 C 1218.1244019138755,363.1961722488038 1329.0622009569379,387.5980861244019 1440,412 L 1440,600 L 0,600 Z" stroke="none" stroke-width="0" fill="url(#gradient)" fill-opacity="1" class="transition-all duration-300 ease-in-out delay-150 path-2"></path>
    
  </svg>
  