<svg class="border shadow-md" viewBox="0 0 810.3822222222223 455.84" xmlns="http://www.w3.org/2000/svg" preserveAspectRatio="none" style="width: 810.382px; height: 455.84px;">
    <rect class="bg" id="bg" x="0" y="0" width="810.3822222222223" height="455.84" fill="#ffec00"/>
    <g transform="rotate(0 405.1911111111111 227.92)">
      <path d="M -336.79 -20.65 S -178.40 -48.65 0.00 -20.65 6.79 -53.65 336.79 -20.65 495.19 -45.97 673.59 -20.65 678.38 -50.65 1010.38 -20.65 1168.78 -68.65 1347.18 -20.65 h 110 V 655.8399999999999 H -336.79 Z" fill="#a0c334" id="-1"/>
      <path d="M -336.79 30.00 S -299.00 4.68 0.00 30.00 137.79 -12.00 336.79 30.00 458.59 4.68 673.59 30.00 831.99 -19.00 1010.38 30.00 1029.18 1.00 1347.18 30.00 h 110 V 655.8399999999999 H -336.79 Z" fill="#8bb026" id="0"/>
      <path d="M -336.79 80.65 S -178.40 36.65 0.00 80.65 158.40 30.65 336.79 80.65 495.19 44.65 673.59 80.65 831.99 55.32 1010.38 80.65 1168.78 55.32 1347.18 80.65 h 110 V 655.8399999999999 H -336.79 Z" fill="#779b20" id="1"/>
      <path d="M -336.79 131.30 S -178.40 105.97 0.00 131.30 104.79 103.30 336.79 131.30 415.59 87.30 673.59 131.30 831.99 105.97 1010.38 131.30 1168.78 88.30 1347.18 131.30 h 110 V 655.8399999999999 H -336.79 Z" fill="#66871b" id="2"/>
      <path d="M -336.79 181.95 S -236.00 155.95 0.00 181.95 92.79 147.95 336.79 181.95 420.59 134.95 673.59 181.95 831.99 135.95 1010.38 181.95 1007.18 142.95 1347.18 181.95 h 110 V 655.8399999999999 H -336.79 Z" fill="#557216" id="3"/>
      <path d="M -336.79 232.60 S -290.00 207.27 0.00 232.60 133.79 206.60 336.79 232.60 495.19 185.60 673.59 232.60 831.99 207.27 1010.38 232.60 1113.18 185.60 1347.18 232.60 h 110 V 655.8399999999999 H -336.79 Z" fill="#465d11" id="4"/>
      <path d="M -336.79 283.24 S -264.00 245.24 0.00 283.24 158.40 257.92 336.79 283.24 495.19 257.92 673.59 283.24 831.99 257.92 1010.38 283.24 1168.78 246.24 1347.18 283.24 h 110 V 655.8399999999999 H -336.79 Z" fill="#35480b" id="5"/>
      <path id="6" d="M -336.79 333.89 S -342.00 308.57 0.00 333.89 69.79 294.89 336.79 333.89 409.59 305.89 673.59 333.89 759.38 308.57 1010.38 333.89 1168.78 302.89 1347.18 333.89 h 110 V 655.8399999999999 H -336.79 Z" fill="#264106"/>
      <path id="7" d="M -336.79 384.54 S -245.00 336.54 0.00 384.54 144.79 359.22 336.79 384.54 403.59 336.54 673.59 384.54 721.38 336.54 1010.38 384.54 1168.78 359.22 1347.18 384.54 h 110 V 655.8399999999999 H -336.79 Z" fill="#172b00"/>
      <path id="8" d="M -336.79 435.19 S -178.40 409.87 0.00 435.19 110.79 409.87 336.79 435.19 495.19 398.19 673.59 435.19 810.38 409.87 1010.38 435.19 1168.78 400.19 1347.18 435.19 h 110 V 655.8399999999999 H -336.79 Z" fill="#061600"/>
    </g>
  </svg>
  