<svg id="visual" viewBox="0 0 960 540" width="960" height="540" xmlns="http://www.w3.org/2000/svg" xmlns:xlink="http://www.w3.org/1999/xlink" version="1.1"><path d="M0 168L14.5 159C29 150 58 132 87.2 131.2C116.3 130.3 145.7 146.7 174.8 153C204 159.3 233 155.7 262 147.5C291 139.3 320 126.7 349 133.8C378 141 407 168 436.2 175.3C465.3 182.7 494.7 170.3 523.8 170.3C553 170.3 582 182.7 611 171.8C640 161 669 127 698 113.5C727 100 756 107 785.2 119.5C814.3 132 843.7 150 872.8 148.3C902 146.7 931 125.3 945.5 114.7L960 104L960 0L945.5 0C931 0 902 0 872.8 0C843.7 0 814.3 0 785.2 0C756 0 727 0 698 0C669 0 640 0 611 0C582 0 553 0 523.8 0C494.7 0 465.3 0 436.2 0C407 0 378 0 349 0C320 0 291 0 262 0C233 0 204 0 174.8 0C145.7 0 116.3 0 87.2 0C58 0 29 0 14.5 0L0 0Z" fill="#009473"></path><path d="M0 320L14.5 323.5C29 327 58 334 87.2 333C116.3 332 145.7 323 174.8 312.2C204 301.3 233 288.7 262 294.2C291 299.7 320 323.3 349 341.3C378 359.3 407 371.7 436.2 355.3C465.3 339 494.7 294 523.8 290.5C553 287 582 325 611 336.8C640 348.7 669 334.3 698 317.2C727 300 756 280 785.2 280.8C814.3 281.7 843.7 303.3 872.8 302.5C902 301.7 931 278.3 945.5 266.7L960 255L960 102L945.5 112.7C931 123.3 902 144.7 872.8 146.3C843.7 148 814.3 130 785.2 117.5C756 105 727 98 698 111.5C669 125 640 159 611 169.8C582 180.7 553 168.3 523.8 168.3C494.7 168.3 465.3 180.7 436.2 173.3C407 166 378 139 349 131.8C320 124.7 291 137.3 262 145.5C233 153.7 204 157.3 174.8 151C145.7 144.7 116.3 128.3 87.2 129.2C58 130 29 148 14.5 157L0 166Z" fill="#90de4f"></path><path d="M0 395L14.5 395C29 395 58 395 87.2 392.3C116.3 389.7 145.7 384.3 174.8 380.8C204 377.3 233 375.7 262 377.5C291 379.3 320 384.7 349 396.3C378 408 407 426 436.2 414.3C465.3 402.7 494.7 361.3 523.8 355C553 348.7 582 377.3 611 392.5C640 407.7 669 409.3 698 402.2C727 395 756 379 785.2 373.7C814.3 368.3 843.7 373.7 872.8 371.8C902 370 931 361 945.5 356.5L960 352L960 253L945.5 264.7C931 276.3 902 299.7 872.8 300.5C843.7 301.3 814.3 279.7 785.2 278.8C756 278 727 298 698 315.2C669 332.3 640 346.7 611 334.8C582 323 553 285 523.8 288.5C494.7 292 465.3 337 436.2 353.3C407 369.7 378 357.3 349 339.3C320 321.3 291 297.7 262 292.2C233 286.7 204 299.3 174.8 310.2C145.7 321 116.3 330 87.2 331C58 332 29 325 14.5 321.5L0 318Z" fill="#fdff00"></path><path d="M0 471L14.5 467.3C29 463.7 58 456.3 87.2 459C116.3 461.7 145.7 474.3 174.8 476.2C204 478 233 469 262 468.2C291 467.3 320 474.7 349 482.8C378 491 407 500 436.2 494.5C465.3 489 494.7 469 523.8 461.7C553 454.3 582 459.7 611 460.7C640 461.7 669 458.3 698 455.7C727 453 756 451 785.2 456.3C814.3 461.7 843.7 474.3 872.8 480.7C902 487 931 487 945.5 487L960 487L960 350L945.5 354.5C931 359 902 368 872.8 369.8C843.7 371.7 814.3 366.3 785.2 371.7C756 377 727 393 698 400.2C669 407.3 640 405.7 611 390.5C582 375.3 553 346.7 523.8 353C494.7 359.3 465.3 400.7 436.2 412.3C407 424 378 406 349 394.3C320 382.7 291 377.3 262 375.5C233 373.7 204 375.3 174.8 378.8C145.7 382.3 116.3 387.7 87.2 390.3C58 393 29 393 14.5 393L0 393Z" fill="#90de4f"></path><path d="M0 541L14.5 541C29 541 58 541 87.2 541C116.3 541 145.7 541 174.8 541C204 541 233 541 262 541C291 541 320 541 349 541C378 541 407 541 436.2 541C465.3 541 494.7 541 523.8 541C553 541 582 541 611 541C640 541 669 541 698 541C727 541 756 541 785.2 541C814.3 541 843.7 541 872.8 541C902 541 931 541 945.5 541L960 541L960 485L945.5 485C931 485 902 485 872.8 478.7C843.7 472.3 814.3 459.7 785.2 454.3C756 449 727 451 698 453.7C669 456.3 640 459.7 611 458.7C582 457.7 553 452.3 523.8 459.7C494.7 467 465.3 487 436.2 492.5C407 498 378 489 349 480.8C320 472.7 291 465.3 262 466.2C233 467 204 476 174.8 474.2C145.7 472.3 116.3 459.7 87.2 457C58 454.3 29 461.7 14.5 465.3L0 469Z" fill="#009473"></path></svg>