<svg id="visual" viewBox="0 0 960 540" width="960" height="540" xmlns="http://www.w3.org/2000/svg" xmlns:xlink="http://www.w3.org/1999/xlink" version="1.1"><path d="M0 131L107 98L213 125L320 77L427 136L533 109L640 77L747 104L853 125L960 120L960 0L853 0L747 0L640 0L533 0L427 0L320 0L213 0L107 0L0 0Z" fill="#fdff00"></path><path d="M0 217L107 201L213 195L320 168L427 239L533 163L640 147L747 174L853 163L960 222L960 118L853 123L747 102L640 75L533 107L427 134L320 75L213 123L107 96L0 129Z" fill="#b1ea3f"></path><path d="M0 401L107 357L213 314L320 401L427 444L533 287L640 303L747 309L853 330L960 395L960 220L853 161L747 172L640 145L533 161L427 237L320 166L213 193L107 199L0 215Z" fill="#70d05c"></path><path d="M0 492L107 460L213 492L320 503L427 509L533 498L640 471L747 455L853 476L960 503L960 393L853 328L747 307L640 301L533 285L427 442L320 399L213 312L107 355L0 399Z" fill="#37b36e"></path><path d="M0 541L107 541L213 541L320 541L427 541L533 541L640 541L747 541L853 541L960 541L960 501L853 474L747 453L640 469L533 496L427 507L320 501L213 490L107 458L0 490Z" fill="#009473"></path></svg>