<svg id="visual" viewBox="0 0 540 960" width="540" height="960" xmlns="http://www.w3.org/2000/svg" xmlns:xlink="http://www.w3.org/1999/xlink" version="1.1"><path d="M0 231L60 174L120 222L180 135L240 241L300 193L360 135L420 183L480 222L540 212L540 0L480 0L420 0L360 0L300 0L240 0L180 0L120 0L60 0L0 0Z" fill="#fdff00"></path><path d="M0 385L60 356L120 347L180 299L240 423L300 289L360 260L420 308L480 289L540 395L540 210L480 220L420 181L360 133L300 191L240 239L180 133L120 220L60 172L0 229Z" fill="#b1ea3f"></path><path d="M0 711L60 635L120 558L180 711L240 788L300 510L360 539L420 548L480 587L540 702L540 393L480 287L420 306L360 258L300 287L240 421L180 297L120 345L60 354L0 383Z" fill="#70d05c"></path><path d="M0 875L60 817L120 875L180 894L240 903L300 884L360 836L420 807L480 846L540 894L540 700L480 585L420 546L360 537L300 508L240 786L180 709L120 556L60 633L0 709Z" fill="#37b36e"></path><path d="M0 961L60 961L120 961L180 961L240 961L300 961L360 961L420 961L480 961L540 961L540 892L480 844L420 805L360 834L300 882L240 901L180 892L120 873L60 815L0 873Z" fill="#009473"></path></svg>